<?xml version="1.0" ?><svg id="object" viewBox="0 0 32 32" xmlns="http://www.w3.org/2000/svg"><defs><style>.cls-1{fill:#ffc661;}.cls-2{fill:#6d6daa;}</style></defs><title/><path class="cls-1" d="M29.41,9.62l-7-7A2,2,0,0,0,21,2H11a2,2,0,0,0-1.41.59l-7,7A2,2,0,0,0,2,11V21a2,2,0,0,0,.59,1.41l7,7A2,2,0,0,0,11,30H21a2,2,0,0,0,1.41-.59l7-7A2,2,0,0,0,30,21V11A2,2,0,0,0,29.41,9.62ZM16,24a8,8,0,1,1,8-8A8,8,0,0,1,16,24Z"/><path class="cls-2" d="M21,31H11a3,3,0,0,1-2.12-.88l-7-7A3,3,0,0,1,1,21V11a3,3,0,0,1,.88-2.12l7-7A3,3,0,0,1,11,1H21a3,3,0,0,1,2.12.88l7,7A3,3,0,0,1,31,11V21a3,3,0,0,1-.88,2.12l-7,7A3,3,0,0,1,21,31ZM11,3a1.05,1.05,0,0,0-.71.29l-7,7A1.05,1.05,0,0,0,3,11V21a1.05,1.05,0,0,0,.29.71l7,7A1.05,1.05,0,0,0,11,29H21a1.05,1.05,0,0,0,.71-.29l7-7A1.05,1.05,0,0,0,29,21V11a1.05,1.05,0,0,0-.29-.71l-7-7A1.05,1.05,0,0,0,21,3Zm5,22a9,9,0,1,1,9-9A9,9,0,0,1,16,25ZM16,9a7,7,0,1,0,7,7A7,7,0,0,0,16,9Z"/></svg>